<?xml version="1.0" standalone="no"?>
<!DOCTYPE svg PUBLIC "-//W3C//DTD SVG 20010904//EN"
 "http://www.w3.org/TR/2001/REC-SVG-20010904/DTD/svg10.dtd">
<svg version="1.0" xmlns="http://www.w3.org/2000/svg"
 width="840.000000pt" height="840.000000pt" viewBox="0 0 840.000000 840.000000"
 preserveAspectRatio="xMidYMid meet">
<metadata>
Created by potrace 1.14, written by Peter Selinger 2001-2017
</metadata>
<g transform="translate(0.000000,840.000000) scale(0.100000,-0.100000)"
fill="#000000" stroke="none">
<path d="M3915 7954 c-16 -2 -79 -9 -140 -15 -262 -26 -567 -92 -839 -183
-1173 -392 -2096 -1310 -2500 -2484 -202 -590 -263 -1222 -176 -1842 154
-1100 754 -2076 1670 -2717 929 -650 2110 -869 3220 -597 1066 261 1982 960
2522 1922 347 619 526 1341 505 2042 -7 238 -18 346 -53 560 -208 1255 -1014
2341 -2159 2909 -397 197 -801 319 -1260 382 -117 16 -216 21 -455 24 -168 2
-318 1 -335 -1z m-1745 -3649 c0 -960 4 -1645 9 -1645 5 0 454 448 999 995
544 547 993 995 996 995 3 0 6 -28 6 -63 l0 -62 -1005 -1005 -1005 -1005 0
-120 0 -120 998 998 c548 548 1000 997 1005 997 4 0 7 -28 7 -63 l0 -62 -1043
-1043 -1044 -1044 -6 273 c-9 353 -9 2980 0 3342 l6 277 39 0 38 0 0 -1645z
m4143 1368 c9 -362 9 -2989 0 -3342 l-6 -273 -1044 1044 -1043 1043 0 62 c0
35 3 63 7 63 5 0 457 -449 1005 -997 l998 -998 0 120 0 120 -1005 1005 -1005
1005 0 62 c0 35 4 63 9 63 5 0 453 -448 996 -995 543 -547 991 -995 996 -995
5 0 9 709 9 1645 l0 1645 38 0 39 0 6 -277z"/>
</g>
</svg>
